<svg id="Calque_1" data-name="Calque 1" xmlns="http://www.w3.org/2000/svg" viewBox="0 0 200 100"><defs><style>.cls-1{fill:#1a2d37;}</style></defs><path class="cls-1" d="M59.12,60.51a4.69,4.69,0,0,1-3.24-1.1,3.79,3.79,0,0,1-1.25-3V47a3.79,3.79,0,0,1,1.25-3,5.29,5.29,0,0,1,6.46,0,3.78,3.78,0,0,1,1.24,3v1.82a.3.3,0,0,1-.34.34H60.78a.31.31,0,0,1-.35-.34V47.52c0-1.12-.44-1.68-1.31-1.68s-1.34.56-1.34,1.68v8.42c0,1.11.45,1.67,1.34,1.67s1.31-.56,1.31-1.67V54.62a.31.31,0,0,1,.35-.34h2.46a.3.3,0,0,1,.34.34v1.82a3.78,3.78,0,0,1-1.24,3A4.69,4.69,0,0,1,59.12,60.51Z"/><path class="cls-1" d="M67.22,60.35a.31.31,0,0,1-.35-.34V46.32a.31.31,0,0,0-.34-.35H64.92a.31.31,0,0,1-.35-.34V43.44a.31.31,0,0,1,.35-.34h7.13a.3.3,0,0,1,.34.34v2.19a.3.3,0,0,1-.34.34H70.37a.31.31,0,0,0-.35.35V60a.3.3,0,0,1-.34.34Z"/><path class="cls-1" d="M74.71,60.35a.37.37,0,0,1-.41-.41V40.06a.37.37,0,0,1,.41-.41h7.13a.37.37,0,0,1,.41.41V42.6a.37.37,0,0,1-.41.42H78.5c-.28,0-.42.13-.42.41v4.94c0,.28.14.41.42.41h3.34a.37.37,0,0,1,.41.42v2.54a.36.36,0,0,1-.41.41H78.5a.37.37,0,0,0-.42.42v7.37a.37.37,0,0,1-.41.41Z"/><path class="cls-1" d="M89,60.51a4.73,4.73,0,0,1-3.24-1.1,3.82,3.82,0,0,1-1.24-3V47.05a3.82,3.82,0,0,1,1.24-3,5.29,5.29,0,0,1,6.46,0,3.83,3.83,0,0,1,1.25,3V56.4a3.83,3.83,0,0,1-1.25,3A4.69,4.69,0,0,1,89,60.51Zm0-2.9c.88,0,1.31-.57,1.31-1.72V47.56c0-1.15-.43-1.72-1.31-1.72s-1.33.57-1.33,1.72v8.33C87.65,57,88.09,57.61,89,57.61Z"/><path class="cls-1" d="M96.09,60.35a.3.3,0,0,1-.34-.34V43.44a.3.3,0,0,1,.34-.34h4.14a4.69,4.69,0,0,1,3.22,1.1,3.83,3.83,0,0,1,1.24,3v2.46a4.56,4.56,0,0,1-.35,1.75,3.59,3.59,0,0,1-1,1.33.46.46,0,0,0-.18.44l1.33,6.67q.09.48-.27.48h-2.53a.3.3,0,0,1-.15-.09.45.45,0,0,1-.11-.24l-1.08-5.87c0-.23-.16-.35-.34-.35h-.81a.31.31,0,0,0-.34.35V60a.31.31,0,0,1-.35.34Zm3.15-9.45h1c.88,0,1.31-.58,1.31-1.73V47.72c0-1.16-.43-1.75-1.31-1.75h-1a.31.31,0,0,0-.34.35v4.23A.31.31,0,0,0,99.24,50.9Z"/><path class="cls-1" d="M115.69,59.22a6.35,6.35,0,0,1-7.75,0,4.58,4.58,0,0,1-1.5-3.62V54.39a.37.37,0,0,1,.41-.42h3a.37.37,0,0,1,.42.42v.66c0,1.35.53,2,1.6,2s1.57-.62,1.57-1.85v-.61a1.9,1.9,0,0,0-.56-1.35,17.13,17.13,0,0,0-2-1.69l-.33-.24-.65-.5-.72-.57-.64-.55a6.29,6.29,0,0,1-.68-.66l-.52-.71a3.81,3.81,0,0,1-.49-.82,7.16,7.16,0,0,1-.26-.87,4.61,4.61,0,0,1-.12-1V44.4a4.58,4.58,0,0,1,1.5-3.62,6.35,6.35,0,0,1,7.75,0,4.6,4.6,0,0,1,1.48,3.62v1.21a.36.36,0,0,1-.41.41h-3c-.28,0-.42-.13-.42-.41V45c0-1.38-.52-2.07-1.57-2.07s-1.6.62-1.6,1.85v.61a1.5,1.5,0,0,0,0,.37,1.4,1.4,0,0,0,.14.37,3.51,3.51,0,0,0,.18.34,2,2,0,0,0,.27.34l.32.32c.08.07.22.19.42.34s.33.28.44.36.27.22.51.4l.55.42.52.4a6.79,6.79,0,0,1,.58.44l.54.44a6.6,6.6,0,0,1,.57.5l.48.51a3,3,0,0,1,.47.58c.08.14.2.35.36.61a2.66,2.66,0,0,1,.32.7c0,.21.11.45.16.73a3.89,3.89,0,0,1,.08.83V55.6A4.6,4.6,0,0,1,115.69,59.22Z"/><path class="cls-1" d="M119.77,60.35a.3.3,0,0,1-.34-.34V43.44a.3.3,0,0,1,.34-.34h4.15a4.71,4.71,0,0,1,3.22,1.1,3.86,3.86,0,0,1,1.24,3V50.6a3.84,3.84,0,0,1-1.24,3,4.67,4.67,0,0,1-3.22,1.11h-1a.31.31,0,0,0-.35.34V60a.3.3,0,0,1-.34.34Zm3.16-8.53h1c.87,0,1.31-.58,1.31-1.73V47.72c0-1.16-.44-1.75-1.31-1.75h-1a.31.31,0,0,0-.35.35v5.15A.31.31,0,0,0,122.93,51.82Z"/><path class="cls-1" d="M134.43,60.51a4.74,4.74,0,0,1-3.25-1.1,3.85,3.85,0,0,1-1.24-3V47.05a3.85,3.85,0,0,1,1.24-3,5.31,5.31,0,0,1,6.47,0,3.82,3.82,0,0,1,1.24,3V56.4a3.82,3.82,0,0,1-1.24,3A4.69,4.69,0,0,1,134.43,60.51Zm0-2.9c.87,0,1.31-.57,1.31-1.72V47.56c0-1.15-.44-1.72-1.31-1.72s-1.34.57-1.34,1.72v8.33C133.09,57,133.54,57.61,134.43,57.61Z"/><path class="cls-1" d="M141.54,60.35a.31.31,0,0,1-.35-.34V43.44a.31.31,0,0,1,.35-.34h4.14a4.69,4.69,0,0,1,3.22,1.1,3.83,3.83,0,0,1,1.24,3v2.46a4.39,4.39,0,0,1-.36,1.75,3.46,3.46,0,0,1-.95,1.33.42.42,0,0,0-.18.44L150,59.87c.06.32,0,.48-.28.48h-2.53a.42.42,0,0,1-.15-.09.44.44,0,0,1-.1-.24l-1.08-5.87c-.05-.23-.16-.35-.35-.35h-.8a.31.31,0,0,0-.35.35V60a.3.3,0,0,1-.34.34Zm3.15-9.45h1c.87,0,1.31-.58,1.31-1.73V47.72c0-1.16-.44-1.75-1.31-1.75h-1a.31.31,0,0,0-.35.35v4.23A.31.31,0,0,0,144.69,50.9Z"/><path class="cls-1" d="M153.73,60.35a.31.31,0,0,1-.35-.34V46.32A.31.31,0,0,0,153,46h-1.61a.31.31,0,0,1-.35-.34V43.44a.31.31,0,0,1,.35-.34h7.13a.3.3,0,0,1,.34.34v2.19a.3.3,0,0,1-.34.34h-1.68a.31.31,0,0,0-.35.35V60a.3.3,0,0,1-.34.34Z"/><path class="cls-1" d="M45.53,54.2l.08-.57,2.22-14H45.44a.74.74,0,0,0-.44.09.72.72,0,0,0-.16.4L41.11,59.88c-.06.31.06.47.36.47H44.2c.24,0,.38-.14.42-.41l.27-1.77a.19.19,0,0,1,0-.07l.62-3.9Z"/><path class="cls-1" d="M53.08,59.88,49.35,40.14a.72.72,0,0,0-.16-.4.76.76,0,0,0-.44-.09h-.16l-1.11,7,.22,1.51h0l1,6.05c0,.2,0,.3-.22.3h-2.2l-.52,3.26h3.16c.24,0,.38.13.42.41l.27,1.77c0,.27.18.41.42.41h2.73C53,60.35,53.13,60.19,53.08,59.88Z"/></svg>